<svg xmlns="http://www.w3.org/2000/svg" xmlns:xlink="http://www.w3.org/1999/xlink" width="322.671875" height="109" style="width:322.671875px;height:109px;font-family:Asana-Math, Asana;background:transparent;"><g><g><g><g transform="matrix(1,0,0,1,2,59.963531494140625)"><path transform="matrix(0.017,0,0,-0.017,0,0)" d="M567 55C567 39 552 30 524 28L480 25L480 -3C582 0 582 0 602 0C622 0 622 0 724 -3L724 25L698 28C651 35 650 35 642 80L555 705L509 705L136 112C100 56 82 40 48 32L28 27L28 -3C120 0 120 0 140 0C159 0 161 0 247 -3L247 25L195 28C179 29 164 38 164 47C164 55 171 69 190 102L292 277L538 277L563 89L563 86C563 84 567 69 567 55ZM496 601L533 313L317 313Z" stroke="rgb(0,0,0)" stroke-opacity="1" stroke-width="8" fill="rgb(0,0,0)" fill-opacity="1"></path></g></g><g><g transform="matrix(1,0,0,1,19.864593505859375,59.963531494140625)"><path transform="matrix(0.017,0,0,-0.017,0,0)" d="M604 347L604 406L65 406L65 347ZM604 134L604 193L65 193L65 134Z" stroke="rgb(0,0,0)" stroke-opacity="1" stroke-width="8" fill="rgb(0,0,0)" fill-opacity="1"></path></g></g><g><g><g><g><g transform="matrix(1,0,0,1,52.8203125,19.83331298828125)"><path transform="matrix(0.017,0,0,-0.017,0,0)" d="M409 603L47 -1L157 -1L497 659L497 689L44 689L44 477L74 477L81 533C89 595 96 603 142 603ZM623 111C593 111 566 83 566 53C566 23 593 -5 622 -5C654 -5 682 22 682 53C682 83 654 111 623 111ZM1011 689C856 689 777 566 777 324C777 207 798 106 833 57C868 8 924 -20 986 -20C1137 -20 1213 110 1213 366C1213 585 1148 689 1011 689ZM993 654C1090 654 1129 556 1129 316C1129 103 1091 15 999 15C902 15 861 116 861 360C861 571 898 654 993 654ZM1709 224C1709 345 1602 366 1555 374C1635 436 1665 482 1665 541C1665 630 1591 689 1480 689C1412 689 1367 670 1319 622L1290 498L1321 498L1339 554C1350 588 1413 622 1465 622C1530 622 1583 569 1583 506C1583 431 1524 368 1453 368C1445 368 1434 369 1421 370L1406 371L1394 318L1401 312C1439 329 1458 334 1485 334C1568 334 1616 281 1616 190C1616 88 1555 21 1462 21C1416 21 1375 36 1345 64C1321 86 1308 109 1289 163L1262 153C1283 92 1291 56 1297 6C1350 -12 1394 -20 1431 -20C1554 -20 1709 87 1709 224Z" stroke="rgb(0,0,0)" stroke-opacity="1" stroke-width="8" fill="rgb(0,0,0)" fill-opacity="1"></path></g></g></g></g><g><g><g><g transform="matrix(1,0,0,1,108.71875,19.83331298828125)"><path transform="matrix(0.017,0,0,-0.017,0,0)" d="M263 689C108 689 29 566 29 324C29 207 50 106 85 57C120 8 176 -20 238 -20C389 -20 465 110 465 366C465 585 400 689 263 689ZM245 654C342 654 381 556 381 316C381 103 343 15 251 15C154 15 113 116 113 360C113 571 150 654 245 654ZM623 111C593 111 566 83 566 53C566 23 593 -5 622 -5C654 -5 682 22 682 53C682 83 654 111 623 111ZM844 -20C955 16 1003 39 1057 85C1154 168 1205 283 1205 417C1205 586 1124 689 992 689C864 689 768 589 768 455C768 340 843 256 947 256C981 256 1020 267 1038 282L1108 340C1100 172 991 49 810 5L810 -3ZM988 656C1033 656 1066 637 1088 597C1106 565 1118 516 1118 471C1118 379 1065 317 988 317C908 317 854 388 854 492C854 593 906 656 988 656Z" stroke="rgb(0,0,0)" stroke-opacity="1" stroke-width="8" fill="rgb(0,0,0)" fill-opacity="1"></path></g></g></g></g><g><g><g><g transform="matrix(1,0,0,1,160.3203125,19.83331298828125)"><path transform="matrix(0.017,0,0,-0.017,0,0)" d="M418 -3L418 27L366 30C311 33 301 44 301 96L301 700L60 598L67 548L217 614L217 96C217 44 206 33 152 30L96 27L96 -3C250 0 250 0 261 0C292 0 402 -3 418 -3ZM623 111C593 111 566 83 566 53C566 23 593 -5 622 -5C654 -5 682 22 682 53C682 83 654 111 623 111ZM1166 -3L1166 27L1114 30C1059 33 1049 44 1049 96L1049 700L808 598L815 548L965 614L965 96C965 44 954 33 900 30L844 27L844 -3C998 0 998 0 1009 0C1040 0 1150 -3 1166 -3ZM1656 603L1294 -1L1404 -1L1744 659L1744 689L1291 689L1291 477L1321 477L1328 533C1336 595 1343 603 1389 603Z" stroke="rgb(0,0,0)" stroke-opacity="1" stroke-width="8" fill="rgb(0,0,0)" fill-opacity="1"></path></g></g></g></g><g><g><g><g transform="matrix(1,0,0,1,211.07550048828125,19.83331298828125)"><path transform="matrix(0.017,0,0,-0.017,0,0)" d="M418 -3L418 27L366 30C311 33 301 44 301 96L301 700L60 598L67 548L217 614L217 96C217 44 206 33 152 30L96 27L96 -3C250 0 250 0 261 0C292 0 402 -3 418 -3ZM623 111C593 111 566 83 566 53C566 23 593 -5 622 -5C654 -5 682 22 682 53C682 83 654 111 623 111ZM1166 -3L1166 27L1114 30C1059 33 1049 44 1049 96L1049 700L808 598L815 548L965 614L965 96C965 44 954 33 900 30L844 27L844 -3C998 0 998 0 1009 0C1040 0 1150 -3 1166 -3ZM1709 224C1709 345 1602 366 1555 374C1635 436 1665 482 1665 541C1665 630 1591 689 1480 689C1412 689 1367 670 1319 622L1290 498L1321 498L1339 554C1350 588 1413 622 1465 622C1530 622 1583 569 1583 506C1583 431 1524 368 1453 368C1445 368 1434 369 1421 370L1406 371L1394 318L1401 312C1439 329 1458 334 1485 334C1568 334 1616 281 1616 190C1616 88 1555 21 1462 21C1416 21 1375 36 1345 64C1321 86 1308 109 1289 163L1262 153C1283 92 1291 56 1297 6C1350 -12 1394 -20 1431 -20C1554 -20 1709 87 1709 224ZM2205 253C2205 366 2124 446 2010 446C1962 446 1926 443 1873 396L1873 605L2178 604L2178 689L1821 690L1821 322L1841 316C1888 363 1915 377 1964 377C2060 377 2120 309 2120 201C2120 90 2056 25 1947 25C1893 25 1843 43 1829 69L1783 151L1759 137C1782 80 1794 48 1808 4C1836 -11 1876 -20 1919 -20C2047 -20 2205 89 2205 253Z" stroke="rgb(0,0,0)" stroke-opacity="1" stroke-width="8" fill="rgb(0,0,0)" fill-opacity="1"></path></g></g></g></g><g><g><g><g transform="matrix(1,0,0,1,265.17706298828125,19.83331298828125)"><path transform="matrix(0.017,0,0,-0.017,0,0)" d="M555 243L555 299L51 299L51 243Z" stroke="rgb(0,0,0)" stroke-opacity="1" stroke-width="8" fill="rgb(0,0,0)" fill-opacity="1"></path></g></g><g><g transform="matrix(1,0,0,1,275.46356201171875,19.83331298828125)"><path transform="matrix(0.017,0,0,-0.017,0,0)" d="M263 689C108 689 29 566 29 324C29 207 50 106 85 57C120 8 176 -20 238 -20C389 -20 465 110 465 366C465 585 400 689 263 689ZM245 654C342 654 381 556 381 316C381 103 343 15 251 15C154 15 113 116 113 360C113 571 150 654 245 654ZM623 111C593 111 566 83 566 53C566 23 593 -5 622 -5C654 -5 682 22 682 53C682 83 654 111 623 111ZM916 345C875 326 858 315 836 294C798 256 778 211 778 159C778 56 861 -20 974 -20C1104 -20 1212 82 1212 206C1212 286 1175 329 1061 381C1152 443 1184 485 1184 545C1184 631 1113 689 1007 689C888 689 801 613 801 508C801 440 828 402 916 345ZM1032 295C1095 267 1133 218 1133 164C1133 80 1070 14 989 14C904 14 849 74 849 167C849 240 878 286 952 331ZM971 423C908 454 876 494 876 544C876 610 924 655 995 655C1068 655 1116 607 1116 534C1116 477 1091 438 1026 396ZM1665 -3L1665 27L1613 30C1558 33 1548 44 1548 96L1548 700L1307 598L1314 548L1464 614L1464 96C1464 44 1453 33 1399 30L1343 27L1343 -3C1497 0 1497 0 1508 0C1539 0 1649 -3 1665 -3Z" stroke="rgb(0,0,0)" stroke-opacity="1" stroke-width="8" fill="rgb(0,0,0)" fill-opacity="1"></path></g></g></g></g><g><g><g><g transform="matrix(1,0,0,1,57.052093505859375,40.666656494140625)"><path transform="matrix(0.017,0,0,-0.017,0,0)" d="M263 689C108 689 29 566 29 324C29 207 50 106 85 57C120 8 176 -20 238 -20C389 -20 465 110 465 366C465 585 400 689 263 689ZM245 654C342 654 381 556 381 316C381 103 343 15 251 15C154 15 113 116 113 360C113 571 150 654 245 654ZM623 111C593 111 566 83 566 53C566 23 593 -5 622 -5C654 -5 682 22 682 53C682 83 654 111 623 111ZM844 -20C955 16 1003 39 1057 85C1154 168 1205 283 1205 417C1205 586 1124 689 992 689C864 689 768 589 768 455C768 340 843 256 947 256C981 256 1020 267 1038 282L1108 340C1100 172 991 49 810 5L810 -3ZM988 656C1033 656 1066 637 1088 597C1106 565 1118 516 1118 471C1118 379 1065 317 988 317C908 317 854 388 854 492C854 593 906 656 988 656Z" stroke="rgb(0,0,0)" stroke-opacity="1" stroke-width="8" fill="rgb(0,0,0)" fill-opacity="1"></path></g></g></g></g><g><g><g><g transform="matrix(1,0,0,1,104.48699951171875,40.666656494140625)"><path transform="matrix(0.017,0,0,-0.017,0,0)" d="M462 224C462 345 355 366 308 374C388 436 418 482 418 541C418 630 344 689 233 689C165 689 120 670 72 622L43 498L74 498L92 554C103 588 166 622 218 622C283 622 336 569 336 506C336 431 277 368 206 368C198 368 187 369 174 370L159 371L147 318L154 312C192 329 211 334 238 334C321 334 369 281 369 190C369 88 308 21 215 21C169 21 128 36 98 64C74 86 61 109 42 163L15 153C36 92 44 56 50 6C103 -12 147 -20 184 -20C307 -20 462 87 462 224ZM623 111C593 111 566 83 566 53C566 23 593 -5 622 -5C654 -5 682 22 682 53C682 83 654 111 623 111ZM1210 224C1210 345 1103 366 1056 374C1136 436 1166 482 1166 541C1166 630 1092 689 981 689C913 689 868 670 820 622L791 498L822 498L840 554C851 588 914 622 966 622C1031 622 1084 569 1084 506C1084 431 1025 368 954 368C946 368 935 369 922 370L907 371L895 318L902 312C940 329 959 334 986 334C1069 334 1117 281 1117 190C1117 88 1056 21 963 21C917 21 876 36 846 64C822 86 809 109 790 163L763 153C784 92 792 56 798 6C851 -12 895 -20 932 -20C1055 -20 1210 87 1210 224ZM1343 -20C1454 16 1502 39 1556 85C1653 168 1704 283 1704 417C1704 586 1623 689 1491 689C1363 689 1267 589 1267 455C1267 340 1342 256 1446 256C1480 256 1519 267 1537 282L1607 340C1599 172 1490 49 1309 5L1309 -3ZM1487 656C1532 656 1565 637 1587 597C1605 565 1617 516 1617 471C1617 379 1564 317 1487 317C1407 317 1353 388 1353 492C1353 593 1405 656 1487 656Z" stroke="rgb(0,0,0)" stroke-opacity="1" stroke-width="8" fill="rgb(0,0,0)" fill-opacity="1"></path></g></g></g></g><g><g><g><g transform="matrix(1,0,0,1,164.55206298828125,40.666656494140625)"><path transform="matrix(0.017,0,0,-0.017,0,0)" d="M418 -3L418 27L366 30C311 33 301 44 301 96L301 700L60 598L67 548L217 614L217 96C217 44 206 33 152 30L96 27L96 -3C250 0 250 0 261 0C292 0 402 -3 418 -3ZM623 111C593 111 566 83 566 53C566 23 593 -5 622 -5C654 -5 682 22 682 53C682 83 654 111 623 111ZM1210 224C1210 345 1103 366 1056 374C1136 436 1166 482 1166 541C1166 630 1092 689 981 689C913 689 868 670 820 622L791 498L822 498L840 554C851 588 914 622 966 622C1031 622 1084 569 1084 506C1084 431 1025 368 954 368C946 368 935 369 922 370L907 371L895 318L902 312C940 329 959 334 986 334C1069 334 1117 281 1117 190C1117 88 1056 21 963 21C917 21 876 36 846 64C822 86 809 109 790 163L763 153C784 92 792 56 798 6C851 -12 895 -20 932 -20C1055 -20 1210 87 1210 224Z" stroke="rgb(0,0,0)" stroke-opacity="1" stroke-width="8" fill="rgb(0,0,0)" fill-opacity="1"></path></g></g></g></g><g><g><g><g transform="matrix(1,0,0,1,215.3203125,40.666656494140625)"><path transform="matrix(0.017,0,0,-0.017,0,0)" d="M263 689C108 689 29 566 29 324C29 207 50 106 85 57C120 8 176 -20 238 -20C389 -20 465 110 465 366C465 585 400 689 263 689ZM245 654C342 654 381 556 381 316C381 103 343 15 251 15C154 15 113 116 113 360C113 571 150 654 245 654ZM623 111C593 111 566 83 566 53C566 23 593 -5 622 -5C654 -5 682 22 682 53C682 83 654 111 623 111ZM1166 -3L1166 27L1114 30C1059 33 1049 44 1049 96L1049 700L808 598L815 548L965 614L965 96C965 44 954 33 900 30L844 27L844 -3C998 0 998 0 1009 0C1040 0 1150 -3 1166 -3ZM1378 331C1399 512 1488 611 1668 665L1626 689C1530 657 1489 637 1438 593C1335 506 1279 384 1279 247C1279 82 1359 -20 1488 -20C1618 -20 1715 83 1715 219C1715 334 1646 409 1540 409C1463 409 1431 370 1378 331ZM1502 349C1578 349 1629 283 1629 184C1629 80 1578 13 1501 13C1416 13 1370 86 1370 220C1370 255 1374 274 1385 291C1407 325 1454 349 1502 349Z" stroke="rgb(0,0,0)" stroke-opacity="1" stroke-width="8" fill="rgb(0,0,0)" fill-opacity="1"></path></g></g></g></g><g><g><g><g transform="matrix(1,0,0,1,265.17706298828125,40.666656494140625)"><path transform="matrix(0.017,0,0,-0.017,0,0)" d="M555 243L555 299L51 299L51 243Z" stroke="rgb(0,0,0)" stroke-opacity="1" stroke-width="8" fill="rgb(0,0,0)" fill-opacity="1"></path></g></g><g><g transform="matrix(1,0,0,1,275.46356201171875,40.666656494140625)"><path transform="matrix(0.017,0,0,-0.017,0,0)" d="M418 -3L418 27L366 30C311 33 301 44 301 96L301 700L60 598L67 548L217 614L217 96C217 44 206 33 152 30L96 27L96 -3C250 0 250 0 261 0C292 0 402 -3 418 -3ZM623 111C593 111 566 83 566 53C566 23 593 -5 622 -5C654 -5 682 22 682 53C682 83 654 111 623 111ZM916 345C875 326 858 315 836 294C798 256 778 211 778 159C778 56 861 -20 974 -20C1104 -20 1212 82 1212 206C1212 286 1175 329 1061 381C1152 443 1184 485 1184 545C1184 631 1113 689 1007 689C888 689 801 613 801 508C801 440 828 402 916 345ZM1032 295C1095 267 1133 218 1133 164C1133 80 1070 14 989 14C904 14 849 74 849 167C849 240 878 286 952 331ZM971 423C908 454 876 494 876 544C876 610 924 655 995 655C1068 655 1116 607 1116 534C1116 477 1091 438 1026 396ZM1709 224C1709 345 1602 366 1555 374C1635 436 1665 482 1665 541C1665 630 1591 689 1480 689C1412 689 1367 670 1319 622L1290 498L1321 498L1339 554C1350 588 1413 622 1465 622C1530 622 1583 569 1583 506C1583 431 1524 368 1453 368C1445 368 1434 369 1421 370L1406 371L1394 318L1401 312C1439 329 1458 334 1485 334C1568 334 1616 281 1616 190C1616 88 1555 21 1462 21C1416 21 1375 36 1345 64C1321 86 1308 109 1289 163L1262 153C1283 92 1291 56 1297 6C1350 -12 1394 -20 1431 -20C1554 -20 1709 87 1709 224Z" stroke="rgb(0,0,0)" stroke-opacity="1" stroke-width="8" fill="rgb(0,0,0)" fill-opacity="1"></path></g></g></g></g><g><g><g><g transform="matrix(1,0,0,1,52.8203125,61.5)"><path transform="matrix(0.017,0,0,-0.017,0,0)" d="M418 -3L418 27L366 30C311 33 301 44 301 96L301 700L60 598L67 548L217 614L217 96C217 44 206 33 152 30L96 27L96 -3C250 0 250 0 261 0C292 0 402 -3 418 -3ZM623 111C593 111 566 83 566 53C566 23 593 -5 622 -5C654 -5 682 22 682 53C682 83 654 111 623 111ZM1166 -3L1166 27L1114 30C1059 33 1049 44 1049 96L1049 700L808 598L815 548L965 614L965 96C965 44 954 33 900 30L844 27L844 -3C998 0 998 0 1009 0C1040 0 1150 -3 1166 -3ZM1656 603L1294 -1L1404 -1L1744 659L1744 689L1291 689L1291 477L1321 477L1328 533C1336 595 1343 603 1389 603Z" stroke="rgb(0,0,0)" stroke-opacity="1" stroke-width="8" fill="rgb(0,0,0)" fill-opacity="1"></path></g></g></g></g><g><g><g><g transform="matrix(1,0,0,1,108.71875,61.5)"><path transform="matrix(0.017,0,0,-0.017,0,0)" d="M418 -3L418 27L366 30C311 33 301 44 301 96L301 700L60 598L67 548L217 614L217 96C217 44 206 33 152 30L96 27L96 -3C250 0 250 0 261 0C292 0 402 -3 418 -3ZM623 111C593 111 566 83 566 53C566 23 593 -5 622 -5C654 -5 682 22 682 53C682 83 654 111 623 111ZM1210 224C1210 345 1103 366 1056 374C1136 436 1166 482 1166 541C1166 630 1092 689 981 689C913 689 868 670 820 622L791 498L822 498L840 554C851 588 914 622 966 622C1031 622 1084 569 1084 506C1084 431 1025 368 954 368C946 368 935 369 922 370L907 371L895 318L902 312C940 329 959 334 986 334C1069 334 1117 281 1117 190C1117 88 1056 21 963 21C917 21 876 36 846 64C822 86 809 109 790 163L763 153C784 92 792 56 798 6C851 -12 895 -20 932 -20C1055 -20 1210 87 1210 224Z" stroke="rgb(0,0,0)" stroke-opacity="1" stroke-width="8" fill="rgb(0,0,0)" fill-opacity="1"></path></g></g></g></g><g><g><g><g transform="matrix(1,0,0,1,160.3203125,61.5)"><path transform="matrix(0.017,0,0,-0.017,0,0)" d="M131 331C152 512 241 611 421 665L379 689C283 657 242 637 191 593C88 506 32 384 32 247C32 82 112 -20 241 -20C371 -20 468 83 468 219C468 334 399 409 293 409C216 409 184 370 131 331ZM255 349C331 349 382 283 382 184C382 80 331 13 254 13C169 13 123 86 123 220C123 255 127 274 138 291C160 325 207 349 255 349ZM623 111C593 111 566 83 566 53C566 23 593 -5 622 -5C654 -5 682 22 682 53C682 83 654 111 623 111ZM764 23L764 -3C951 -3 951 0 987 0C1023 0 1023 -3 1216 -3L1216 82C1101 77 1055 81 870 77L1052 270C1149 373 1179 428 1179 503C1179 618 1101 689 974 689C902 689 853 669 804 619L787 483L816 483L829 529C845 587 881 612 948 612C1034 612 1089 558 1089 473C1089 398 1047 324 934 204ZM1665 -3L1665 27L1613 30C1558 33 1548 44 1548 96L1548 700L1307 598L1314 548L1464 614L1464 96C1464 44 1453 33 1399 30L1343 27L1343 -3C1497 0 1497 0 1508 0C1539 0 1649 -3 1665 -3Z" stroke="rgb(0,0,0)" stroke-opacity="1" stroke-width="8" fill="rgb(0,0,0)" fill-opacity="1"></path></g></g></g></g><g><g><g><g transform="matrix(1,0,0,1,219.55206298828125,61.5)"><path transform="matrix(0.017,0,0,-0.017,0,0)" d="M16 23L16 -3C203 -3 203 0 239 0C275 0 275 -3 468 -3L468 82C353 77 307 81 122 77L304 270C401 373 431 428 431 503C431 618 353 689 226 689C154 689 105 669 56 619L39 483L68 483L81 529C97 587 133 612 200 612C286 612 341 558 341 473C341 398 299 324 186 204ZM623 111C593 111 566 83 566 53C566 23 593 -5 622 -5C654 -5 682 22 682 53C682 83 654 111 623 111ZM1166 -3L1166 27L1114 30C1059 33 1049 44 1049 96L1049 700L808 598L815 548L965 614L965 96C965 44 954 33 900 30L844 27L844 -3C998 0 998 0 1009 0C1040 0 1150 -3 1166 -3Z" stroke="rgb(0,0,0)" stroke-opacity="1" stroke-width="8" fill="rgb(0,0,0)" fill-opacity="1"></path></g></g></g></g><g><g><g><g transform="matrix(1,0,0,1,260.93231201171875,61.5)"><path transform="matrix(0.017,0,0,-0.017,0,0)" d="M555 243L555 299L51 299L51 243Z" stroke="rgb(0,0,0)" stroke-opacity="1" stroke-width="8" fill="rgb(0,0,0)" fill-opacity="1"></path></g></g><g><g transform="matrix(1,0,0,1,271.21875,61.5)"><path transform="matrix(0.017,0,0,-0.017,0,0)" d="M418 -3L418 27L366 30C311 33 301 44 301 96L301 700L60 598L67 548L217 614L217 96C217 44 206 33 152 30L96 27L96 -3C250 0 250 0 261 0C292 0 402 -3 418 -3ZM623 111C593 111 566 83 566 53C566 23 593 -5 622 -5C654 -5 682 22 682 53C682 83 654 111 623 111ZM1210 224C1210 345 1103 366 1056 374C1136 436 1166 482 1166 541C1166 630 1092 689 981 689C913 689 868 670 820 622L791 498L822 498L840 554C851 588 914 622 966 622C1031 622 1084 569 1084 506C1084 431 1025 368 954 368C946 368 935 369 922 370L907 371L895 318L902 312C940 329 959 334 986 334C1069 334 1117 281 1117 190C1117 88 1056 21 963 21C917 21 876 36 846 64C822 86 809 109 790 163L763 153C784 92 792 56 798 6C851 -12 895 -20 932 -20C1055 -20 1210 87 1210 224ZM1378 331C1399 512 1488 611 1668 665L1626 689C1530 657 1489 637 1438 593C1335 506 1279 384 1279 247C1279 82 1359 -20 1488 -20C1618 -20 1715 83 1715 219C1715 334 1646 409 1540 409C1463 409 1431 370 1378 331ZM1502 349C1578 349 1629 283 1629 184C1629 80 1578 13 1501 13C1416 13 1370 86 1370 220C1370 255 1374 274 1385 291C1407 325 1454 349 1502 349ZM2155 603L1793 -1L1903 -1L2243 659L2243 689L1790 689L1790 477L1820 477L1827 533C1835 595 1842 603 1888 603Z" stroke="rgb(0,0,0)" stroke-opacity="1" stroke-width="8" fill="rgb(0,0,0)" fill-opacity="1"></path></g></g></g></g><g><g><g><g transform="matrix(1,0,0,1,48.575531005859375,82.33331298828125)"><path transform="matrix(0.017,0,0,-0.017,0,0)" d="M418 -3L418 27L366 30C311 33 301 44 301 96L301 700L60 598L67 548L217 614L217 96C217 44 206 33 152 30L96 27L96 -3C250 0 250 0 261 0C292 0 402 -3 418 -3ZM623 111C593 111 566 83 566 53C566 23 593 -5 622 -5C654 -5 682 22 682 53C682 83 654 111 623 111ZM1166 -3L1166 27L1114 30C1059 33 1049 44 1049 96L1049 700L808 598L815 548L965 614L965 96C965 44 954 33 900 30L844 27L844 -3C998 0 998 0 1009 0C1040 0 1150 -3 1166 -3ZM1709 224C1709 345 1602 366 1555 374C1635 436 1665 482 1665 541C1665 630 1591 689 1480 689C1412 689 1367 670 1319 622L1290 498L1321 498L1339 554C1350 588 1413 622 1465 622C1530 622 1583 569 1583 506C1583 431 1524 368 1453 368C1445 368 1434 369 1421 370L1406 371L1394 318L1401 312C1439 329 1458 334 1485 334C1568 334 1616 281 1616 190C1616 88 1555 21 1462 21C1416 21 1375 36 1345 64C1321 86 1308 109 1289 163L1262 153C1283 92 1291 56 1297 6C1350 -12 1394 -20 1431 -20C1554 -20 1709 87 1709 224ZM2205 253C2205 366 2124 446 2010 446C1962 446 1926 443 1873 396L1873 605L2178 604L2178 689L1821 690L1821 322L1841 316C1888 363 1915 377 1964 377C2060 377 2120 309 2120 201C2120 90 2056 25 1947 25C1893 25 1843 43 1829 69L1783 151L1759 137C1782 80 1794 48 1808 4C1836 -11 1876 -20 1919 -20C2047 -20 2205 89 2205 253Z" stroke="rgb(0,0,0)" stroke-opacity="1" stroke-width="8" fill="rgb(0,0,0)" fill-opacity="1"></path></g></g></g></g><g><g><g><g transform="matrix(1,0,0,1,104.48699951171875,82.33331298828125)"><path transform="matrix(0.017,0,0,-0.017,0,0)" d="M263 689C108 689 29 566 29 324C29 207 50 106 85 57C120 8 176 -20 238 -20C389 -20 465 110 465 366C465 585 400 689 263 689ZM245 654C342 654 381 556 381 316C381 103 343 15 251 15C154 15 113 116 113 360C113 571 150 654 245 654ZM623 111C593 111 566 83 566 53C566 23 593 -5 622 -5C654 -5 682 22 682 53C682 83 654 111 623 111ZM1166 -3L1166 27L1114 30C1059 33 1049 44 1049 96L1049 700L808 598L815 548L965 614L965 96C965 44 954 33 900 30L844 27L844 -3C998 0 998 0 1009 0C1040 0 1150 -3 1166 -3ZM1378 331C1399 512 1488 611 1668 665L1626 689C1530 657 1489 637 1438 593C1335 506 1279 384 1279 247C1279 82 1359 -20 1488 -20C1618 -20 1715 83 1715 219C1715 334 1646 409 1540 409C1463 409 1431 370 1378 331ZM1502 349C1578 349 1629 283 1629 184C1629 80 1578 13 1501 13C1416 13 1370 86 1370 220C1370 255 1374 274 1385 291C1407 325 1454 349 1502 349Z" stroke="rgb(0,0,0)" stroke-opacity="1" stroke-width="8" fill="rgb(0,0,0)" fill-opacity="1"></path></g></g></g></g><g><g><g><g transform="matrix(1,0,0,1,164.55206298828125,82.33331298828125)"><path transform="matrix(0.017,0,0,-0.017,0,0)" d="M16 23L16 -3C203 -3 203 0 239 0C275 0 275 -3 468 -3L468 82C353 77 307 81 122 77L304 270C401 373 431 428 431 503C431 618 353 689 226 689C154 689 105 669 56 619L39 483L68 483L81 529C97 587 133 612 200 612C286 612 341 558 341 473C341 398 299 324 186 204ZM623 111C593 111 566 83 566 53C566 23 593 -5 622 -5C654 -5 682 22 682 53C682 83 654 111 623 111ZM1166 -3L1166 27L1114 30C1059 33 1049 44 1049 96L1049 700L808 598L815 548L965 614L965 96C965 44 954 33 900 30L844 27L844 -3C998 0 998 0 1009 0C1040 0 1150 -3 1166 -3Z" stroke="rgb(0,0,0)" stroke-opacity="1" stroke-width="8" fill="rgb(0,0,0)" fill-opacity="1"></path></g></g></g></g><g><g><g><g transform="matrix(1,0,0,1,215.3203125,82.33331298828125)"><path transform="matrix(0.017,0,0,-0.017,0,0)" d="M459 253C459 366 378 446 264 446C216 446 180 443 127 396L127 605L432 604L432 689L75 690L75 322L95 316C142 363 169 377 218 377C314 377 374 309 374 201C374 90 310 25 201 25C147 25 97 43 83 69L37 151L13 137C36 80 48 48 62 4C90 -11 130 -20 173 -20C301 -20 459 89 459 253ZM623 111C593 111 566 83 566 53C566 23 593 -5 622 -5C654 -5 682 22 682 53C682 83 654 111 623 111ZM1210 224C1210 345 1103 366 1056 374C1136 436 1166 482 1166 541C1166 630 1092 689 981 689C913 689 868 670 820 622L791 498L822 498L840 554C851 588 914 622 966 622C1031 622 1084 569 1084 506C1084 431 1025 368 954 368C946 368 935 369 922 370L907 371L895 318L902 312C940 329 959 334 986 334C1069 334 1117 281 1117 190C1117 88 1056 21 963 21C917 21 876 36 846 64C822 86 809 109 790 163L763 153C784 92 792 56 798 6C851 -12 895 -20 932 -20C1055 -20 1210 87 1210 224ZM1709 224C1709 345 1602 366 1555 374C1635 436 1665 482 1665 541C1665 630 1591 689 1480 689C1412 689 1367 670 1319 622L1290 498L1321 498L1339 554C1350 588 1413 622 1465 622C1530 622 1583 569 1583 506C1583 431 1524 368 1453 368C1445 368 1434 369 1421 370L1406 371L1394 318L1401 312C1439 329 1458 334 1485 334C1568 334 1616 281 1616 190C1616 88 1555 21 1462 21C1416 21 1375 36 1345 64C1321 86 1308 109 1289 163L1262 153C1283 92 1291 56 1297 6C1350 -12 1394 -20 1431 -20C1554 -20 1709 87 1709 224Z" stroke="rgb(0,0,0)" stroke-opacity="1" stroke-width="8" fill="rgb(0,0,0)" fill-opacity="1"></path></g></g></g></g><g><g><g><g transform="matrix(1,0,0,1,276.67449951171875,82.33331298828125)"><path transform="matrix(0.017,0,0,-0.017,0,0)" d="M16 23L16 -3C203 -3 203 0 239 0C275 0 275 -3 468 -3L468 82C353 77 307 81 122 77L304 270C401 373 431 428 431 503C431 618 353 689 226 689C154 689 105 669 56 619L39 483L68 483L81 529C97 587 133 612 200 612C286 612 341 558 341 473C341 398 299 324 186 204ZM762 689C607 689 528 566 528 324C528 207 549 106 584 57C619 8 675 -20 737 -20C888 -20 964 110 964 366C964 585 899 689 762 689ZM744 654C841 654 880 556 880 316C880 103 842 15 750 15C653 15 612 116 612 360C612 571 649 654 744 654Z" stroke="rgb(0,0,0)" stroke-opacity="1" stroke-width="8" fill="rgb(0,0,0)" fill-opacity="1"></path></g></g></g></g><g><g><g><g transform="matrix(1,0,0,1,47.677093505859375,103.16665649414062)"><path transform="matrix(0.017,0,0,-0.017,0,0)" d="M555 243L555 299L51 299L51 243Z" stroke="rgb(0,0,0)" stroke-opacity="1" stroke-width="8" fill="rgb(0,0,0)" fill-opacity="1"></path></g></g><g><g transform="matrix(1,0,0,1,57.96356201171875,103.16665649414062)"><path transform="matrix(0.017,0,0,-0.017,0,0)" d="M263 689C108 689 29 566 29 324C29 207 50 106 85 57C120 8 176 -20 238 -20C389 -20 465 110 465 366C465 585 400 689 263 689ZM245 654C342 654 381 556 381 316C381 103 343 15 251 15C154 15 113 116 113 360C113 571 150 654 245 654ZM623 111C593 111 566 83 566 53C566 23 593 -5 622 -5C654 -5 682 22 682 53C682 83 654 111 623 111ZM916 345C875 326 858 315 836 294C798 256 778 211 778 159C778 56 861 -20 974 -20C1104 -20 1212 82 1212 206C1212 286 1175 329 1061 381C1152 443 1184 485 1184 545C1184 631 1113 689 1007 689C888 689 801 613 801 508C801 440 828 402 916 345ZM1032 295C1095 267 1133 218 1133 164C1133 80 1070 14 989 14C904 14 849 74 849 167C849 240 878 286 952 331ZM971 423C908 454 876 494 876 544C876 610 924 655 995 655C1068 655 1116 607 1116 534C1116 477 1091 438 1026 396ZM1665 -3L1665 27L1613 30C1558 33 1548 44 1548 96L1548 700L1307 598L1314 548L1464 614L1464 96C1464 44 1453 33 1399 30L1343 27L1343 -3C1497 0 1497 0 1508 0C1539 0 1649 -3 1665 -3Z" stroke="rgb(0,0,0)" stroke-opacity="1" stroke-width="8" fill="rgb(0,0,0)" fill-opacity="1"></path></g></g></g></g><g><g><g><g transform="matrix(1,0,0,1,99.34375,103.16665649414062)"><path transform="matrix(0.017,0,0,-0.017,0,0)" d="M555 243L555 299L51 299L51 243Z" stroke="rgb(0,0,0)" stroke-opacity="1" stroke-width="8" fill="rgb(0,0,0)" fill-opacity="1"></path></g></g><g><g transform="matrix(1,0,0,1,109.63021850585938,103.16665649414062)"><path transform="matrix(0.017,0,0,-0.017,0,0)" d="M418 -3L418 27L366 30C311 33 301 44 301 96L301 700L60 598L67 548L217 614L217 96C217 44 206 33 152 30L96 27L96 -3C250 0 250 0 261 0C292 0 402 -3 418 -3ZM623 111C593 111 566 83 566 53C566 23 593 -5 622 -5C654 -5 682 22 682 53C682 83 654 111 623 111ZM916 345C875 326 858 315 836 294C798 256 778 211 778 159C778 56 861 -20 974 -20C1104 -20 1212 82 1212 206C1212 286 1175 329 1061 381C1152 443 1184 485 1184 545C1184 631 1113 689 1007 689C888 689 801 613 801 508C801 440 828 402 916 345ZM1032 295C1095 267 1133 218 1133 164C1133 80 1070 14 989 14C904 14 849 74 849 167C849 240 878 286 952 331ZM971 423C908 454 876 494 876 544C876 610 924 655 995 655C1068 655 1116 607 1116 534C1116 477 1091 438 1026 396ZM1709 224C1709 345 1602 366 1555 374C1635 436 1665 482 1665 541C1665 630 1591 689 1480 689C1412 689 1367 670 1319 622L1290 498L1321 498L1339 554C1350 588 1413 622 1465 622C1530 622 1583 569 1583 506C1583 431 1524 368 1453 368C1445 368 1434 369 1421 370L1406 371L1394 318L1401 312C1439 329 1458 334 1485 334C1568 334 1616 281 1616 190C1616 88 1555 21 1462 21C1416 21 1375 36 1345 64C1321 86 1308 109 1289 163L1262 153C1283 92 1291 56 1297 6C1350 -12 1394 -20 1431 -20C1554 -20 1709 87 1709 224Z" stroke="rgb(0,0,0)" stroke-opacity="1" stroke-width="8" fill="rgb(0,0,0)" fill-opacity="1"></path></g></g></g></g><g><g><g><g transform="matrix(1,0,0,1,150.93231201171875,103.16665649414062)"><path transform="matrix(0.017,0,0,-0.017,0,0)" d="M555 243L555 299L51 299L51 243Z" stroke="rgb(0,0,0)" stroke-opacity="1" stroke-width="8" fill="rgb(0,0,0)" fill-opacity="1"></path></g></g><g><g transform="matrix(1,0,0,1,161.21875,103.16665649414062)"><path transform="matrix(0.017,0,0,-0.017,0,0)" d="M418 -3L418 27L366 30C311 33 301 44 301 96L301 700L60 598L67 548L217 614L217 96C217 44 206 33 152 30L96 27L96 -3C250 0 250 0 261 0C292 0 402 -3 418 -3ZM623 111C593 111 566 83 566 53C566 23 593 -5 622 -5C654 -5 682 22 682 53C682 83 654 111 623 111ZM1210 224C1210 345 1103 366 1056 374C1136 436 1166 482 1166 541C1166 630 1092 689 981 689C913 689 868 670 820 622L791 498L822 498L840 554C851 588 914 622 966 622C1031 622 1084 569 1084 506C1084 431 1025 368 954 368C946 368 935 369 922 370L907 371L895 318L902 312C940 329 959 334 986 334C1069 334 1117 281 1117 190C1117 88 1056 21 963 21C917 21 876 36 846 64C822 86 809 109 790 163L763 153C784 92 792 56 798 6C851 -12 895 -20 932 -20C1055 -20 1210 87 1210 224ZM1378 331C1399 512 1488 611 1668 665L1626 689C1530 657 1489 637 1438 593C1335 506 1279 384 1279 247C1279 82 1359 -20 1488 -20C1618 -20 1715 83 1715 219C1715 334 1646 409 1540 409C1463 409 1431 370 1378 331ZM1502 349C1578 349 1629 283 1629 184C1629 80 1578 13 1501 13C1416 13 1370 86 1370 220C1370 255 1374 274 1385 291C1407 325 1454 349 1502 349ZM2155 603L1793 -1L1903 -1L2243 659L2243 689L1790 689L1790 477L1820 477L1827 533C1835 595 1842 603 1888 603Z" stroke="rgb(0,0,0)" stroke-opacity="1" stroke-width="8" fill="rgb(0,0,0)" fill-opacity="1"></path></g></g></g></g><g><g><g><g transform="matrix(1,0,0,1,221.67449951171875,103.16665649414062)"><path transform="matrix(0.017,0,0,-0.017,0,0)" d="M16 23L16 -3C203 -3 203 0 239 0C275 0 275 -3 468 -3L468 82C353 77 307 81 122 77L304 270C401 373 431 428 431 503C431 618 353 689 226 689C154 689 105 669 56 619L39 483L68 483L81 529C97 587 133 612 200 612C286 612 341 558 341 473C341 398 299 324 186 204ZM762 689C607 689 528 566 528 324C528 207 549 106 584 57C619 8 675 -20 737 -20C888 -20 964 110 964 366C964 585 899 689 762 689ZM744 654C841 654 880 556 880 316C880 103 842 15 750 15C653 15 612 116 612 360C612 571 649 654 744 654Z" stroke="rgb(0,0,0)" stroke-opacity="1" stroke-width="8" fill="rgb(0,0,0)" fill-opacity="1"></path></g></g></g></g><g><g><g><g transform="matrix(1,0,0,1,276.67449951171875,103.16665649414062)"><path transform="matrix(0.017,0,0,-0.017,0,0)" d="M418 -3L418 27L366 30C311 33 301 44 301 96L301 700L60 598L67 548L217 614L217 96C217 44 206 33 152 30L96 27L96 -3C250 0 250 0 261 0C292 0 402 -3 418 -3ZM908 603L546 -1L656 -1L996 659L996 689L543 689L543 477L573 477L580 533C588 595 595 603 641 603Z" stroke="rgb(0,0,0)" stroke-opacity="1" stroke-width="8" fill="rgb(0,0,0)" fill-opacity="1"></path></g></g></g></g><svg x="36.32293701171875" overflow="visible" y="2" height="105" width="8.489583015441895"><path d=" M 6.27 1.70 c 0.00 -0.06 -0.04 -0.08 -0.08 -0.08 c -0.03 0.00 -0.06 0.01 -0.08 0.02 c -2.55 1.34 -4.65 3.73 -4.65 9.40 v 0.60 h 1.53 v -0.60 c 0.00 -3.23 0.64 -7.03 3.31 -9.06 c 0.12 -0.09 0.13 -0.19 0.13 -0.28 z   M 1.44 11.64 v 81.72 h 1.53 v -81.72 z" style="fill:rgb(0,0,0);fill-opacity:1;stroke-width:1px;stroke:none;stroke-opacity:1;"></path><path d=" M 6.27 103.30 c 0.00 0.06 -0.04 0.08 -0.08 0.08 c -0.03 0.00 -0.06 -0.01 -0.08 -0.02 c -2.55 -1.34 -4.65 -3.73 -4.65 -9.40 v -0.60 h 1.53 v 0.60 c 0.00 3.23 0.64 7.03 3.31 9.06 c 0.12 0.09 0.13 0.19 0.13 0.28 z" style="fill:rgb(0,0,0);fill-opacity:1;stroke-width:1px;stroke:none;stroke-opacity:1;"></path></svg><svg x="312.18231201171875" overflow="visible" y="2" height="105" width="8.489583015441895"><path d=" M 1.75 1.70 c 0.00 -0.06 0.04 -0.08 0.08 -0.08 c 0.03 0.00 0.06 0.01 0.08 0.02 c 2.55 1.34 4.65 3.73 4.65 9.40 v 0.60 h -1.53 v -0.60 c 0.00 -3.23 -0.64 -7.03 -3.31 -9.06 c -0.12 -0.09 -0.13 -0.19 -0.13 -0.28 z  M 6.58 11.64 v 81.72 h -1.53 v -81.72 z" style="fill:rgb(0,0,0);fill-opacity:1;stroke-width:1px;stroke:none;stroke-opacity:1;"></path><path d=" M 1.75 103.30 c 0.00 0.06 0.04 0.08 0.08 0.08 c 0.03 0.00 0.06 -0.01 0.08 -0.02 c 2.55 -1.34 4.65 -3.73 4.65 -9.40 v -0.60 h -1.53 v 0.60 c 0.00 3.23 -0.64 7.03 -3.31 9.06 c -0.12 0.09 -0.13 0.19 -0.13 0.28 z" style="fill:rgb(0,0,0);fill-opacity:1;stroke-width:1px;stroke:none;stroke-opacity:1;"></path></svg><line stroke-dasharray="1" style="fill:none;stroke-width:[object Object];stroke:rgba(0, 0, 0, 0);" x1="41.4140625" y1="2" x2="93.08072662353516" y2="2"></line><line stroke-dasharray="1" style="fill:none;stroke-width:[object Object];stroke:rgba(0, 0, 0, 0);" x1="41.4140625" y1="2" x2="41.4140625" y2="22.833332061767578"></line><line stroke-dasharray="1" style="fill:none;stroke-width:[object Object];stroke:rgba(0, 0, 0, 0);" x1="93.08072662353516" y1="2" x2="93.08072662353516" y2="22.833332061767578"></line><line stroke-dasharray="1" style="fill:none;stroke-width:[object Object];stroke:rgba(0, 0, 0, 0);" x1="41.4140625" y1="22.833332061767578" x2="93.08072662353516" y2="22.833332061767578"></line><line stroke-dasharray="1" style="fill:none;stroke-width:[object Object];stroke:rgba(0, 0, 0, 0);" x1="93.08074951171875" y1="2" x2="144.7474136352539" y2="2"></line><line stroke-dasharray="1" style="fill:none;stroke-width:[object Object];stroke:rgba(0, 0, 0, 0);" x1="93.08074951171875" y1="2" x2="93.08074951171875" y2="22.833332061767578"></line><line stroke-dasharray="1" style="fill:none;stroke-width:[object Object];stroke:rgba(0, 0, 0, 0);" x1="144.7474136352539" y1="2" x2="144.7474136352539" y2="22.833332061767578"></line><line stroke-dasharray="1" style="fill:none;stroke-width:[object Object];stroke:rgba(0, 0, 0, 0);" x1="93.08074951171875" y1="22.833332061767578" x2="144.7474136352539" y2="22.833332061767578"></line><line stroke-dasharray="1" style="fill:none;stroke-width:[object Object];stroke:rgba(0, 0, 0, 0);" x1="144.74740600585938" y1="2" x2="204.74740600585938" y2="2"></line><line stroke-dasharray="1" style="fill:none;stroke-width:[object Object];stroke:rgba(0, 0, 0, 0);" x1="144.74740600585938" y1="2" x2="144.74740600585938" y2="22.833332061767578"></line><line stroke-dasharray="1" style="fill:none;stroke-width:[object Object];stroke:rgba(0, 0, 0, 0);" x1="204.74740600585938" y1="2" x2="204.74740600585938" y2="22.833332061767578"></line><line stroke-dasharray="1" style="fill:none;stroke-width:[object Object];stroke:rgba(0, 0, 0, 0);" x1="144.74740600585938" y1="22.833332061767578" x2="204.74740600585938" y2="22.833332061767578"></line><line stroke-dasharray="1" style="fill:none;stroke-width:[object Object];stroke:rgba(0, 0, 0, 0);" x1="204.74737548828125" y1="2" x2="254.74737548828125" y2="2"></line><line stroke-dasharray="1" style="fill:none;stroke-width:[object Object];stroke:rgba(0, 0, 0, 0);" x1="204.74737548828125" y1="2" x2="204.74737548828125" y2="22.833332061767578"></line><line stroke-dasharray="1" style="fill:none;stroke-width:[object Object];stroke:rgba(0, 0, 0, 0);" x1="254.74737548828125" y1="2" x2="254.74737548828125" y2="22.833332061767578"></line><line stroke-dasharray="1" style="fill:none;stroke-width:[object Object];stroke:rgba(0, 0, 0, 0);" x1="204.74737548828125" y1="22.833332061767578" x2="254.74737548828125" y2="22.833332061767578"></line><line stroke-dasharray="1" style="fill:none;stroke-width:[object Object];stroke:rgba(0, 0, 0, 0);" x1="254.74737548828125" y1="2" x2="314.74737548828125" y2="2"></line><line stroke-dasharray="1" style="fill:none;stroke-width:[object Object];stroke:rgba(0, 0, 0, 0);" x1="254.74737548828125" y1="2" x2="254.74737548828125" y2="22.833332061767578"></line><line stroke-dasharray="1" style="fill:none;stroke-width:[object Object];stroke:rgba(0, 0, 0, 0);" x1="314.74737548828125" y1="2" x2="314.74737548828125" y2="22.833332061767578"></line><line stroke-dasharray="1" style="fill:none;stroke-width:[object Object];stroke:rgba(0, 0, 0, 0);" x1="254.74737548828125" y1="22.833332061767578" x2="314.74737548828125" y2="22.833332061767578"></line><line stroke-dasharray="1" style="fill:none;stroke-width:[object Object];stroke:rgba(0, 0, 0, 0);" x1="41.4140625" y1="22.83331298828125" x2="93.08072662353516" y2="22.83331298828125"></line><line stroke-dasharray="1" style="fill:none;stroke-width:[object Object];stroke:rgba(0, 0, 0, 0);" x1="41.4140625" y1="22.83331298828125" x2="41.4140625" y2="43.66664505004883"></line><line stroke-dasharray="1" style="fill:none;stroke-width:[object Object];stroke:rgba(0, 0, 0, 0);" x1="93.08072662353516" y1="22.83331298828125" x2="93.08072662353516" y2="43.66664505004883"></line><line stroke-dasharray="1" style="fill:none;stroke-width:[object Object];stroke:rgba(0, 0, 0, 0);" x1="41.4140625" y1="43.66664505004883" x2="93.08072662353516" y2="43.66664505004883"></line><line stroke-dasharray="1" style="fill:none;stroke-width:[object Object];stroke:rgba(0, 0, 0, 0);" x1="93.08074951171875" y1="22.83331298828125" x2="144.7474136352539" y2="22.83331298828125"></line><line stroke-dasharray="1" style="fill:none;stroke-width:[object Object];stroke:rgba(0, 0, 0, 0);" x1="93.08074951171875" y1="22.83331298828125" x2="93.08074951171875" y2="43.66664505004883"></line><line stroke-dasharray="1" style="fill:none;stroke-width:[object Object];stroke:rgba(0, 0, 0, 0);" x1="144.7474136352539" y1="22.83331298828125" x2="144.7474136352539" y2="43.66664505004883"></line><line stroke-dasharray="1" style="fill:none;stroke-width:[object Object];stroke:rgba(0, 0, 0, 0);" x1="93.08074951171875" y1="43.66664505004883" x2="144.7474136352539" y2="43.66664505004883"></line><line stroke-dasharray="1" style="fill:none;stroke-width:[object Object];stroke:rgba(0, 0, 0, 0);" x1="144.74740600585938" y1="22.83331298828125" x2="204.74740600585938" y2="22.83331298828125"></line><line stroke-dasharray="1" style="fill:none;stroke-width:[object Object];stroke:rgba(0, 0, 0, 0);" x1="144.74740600585938" y1="22.83331298828125" x2="144.74740600585938" y2="43.66664505004883"></line><line stroke-dasharray="1" style="fill:none;stroke-width:[object Object];stroke:rgba(0, 0, 0, 0);" x1="204.74740600585938" y1="22.83331298828125" x2="204.74740600585938" y2="43.66664505004883"></line><line stroke-dasharray="1" style="fill:none;stroke-width:[object Object];stroke:rgba(0, 0, 0, 0);" x1="144.74740600585938" y1="43.66664505004883" x2="204.74740600585938" y2="43.66664505004883"></line><line stroke-dasharray="1" style="fill:none;stroke-width:[object Object];stroke:rgba(0, 0, 0, 0);" x1="204.74737548828125" y1="22.83331298828125" x2="254.74737548828125" y2="22.83331298828125"></line><line stroke-dasharray="1" style="fill:none;stroke-width:[object Object];stroke:rgba(0, 0, 0, 0);" x1="204.74737548828125" y1="22.83331298828125" x2="204.74737548828125" y2="43.66664505004883"></line><line stroke-dasharray="1" style="fill:none;stroke-width:[object Object];stroke:rgba(0, 0, 0, 0);" x1="254.74737548828125" y1="22.83331298828125" x2="254.74737548828125" y2="43.66664505004883"></line><line stroke-dasharray="1" style="fill:none;stroke-width:[object Object];stroke:rgba(0, 0, 0, 0);" x1="204.74737548828125" y1="43.66664505004883" x2="254.74737548828125" y2="43.66664505004883"></line><line stroke-dasharray="1" style="fill:none;stroke-width:[object Object];stroke:rgba(0, 0, 0, 0);" x1="254.74737548828125" y1="22.83331298828125" x2="314.74737548828125" y2="22.83331298828125"></line><line stroke-dasharray="1" style="fill:none;stroke-width:[object Object];stroke:rgba(0, 0, 0, 0);" x1="254.74737548828125" y1="22.83331298828125" x2="254.74737548828125" y2="43.66664505004883"></line><line stroke-dasharray="1" style="fill:none;stroke-width:[object Object];stroke:rgba(0, 0, 0, 0);" x1="314.74737548828125" y1="22.83331298828125" x2="314.74737548828125" y2="43.66664505004883"></line><line stroke-dasharray="1" style="fill:none;stroke-width:[object Object];stroke:rgba(0, 0, 0, 0);" x1="254.74737548828125" y1="43.66664505004883" x2="314.74737548828125" y2="43.66664505004883"></line><line stroke-dasharray="1" style="fill:none;stroke-width:[object Object];stroke:rgba(0, 0, 0, 0);" x1="41.4140625" y1="43.666656494140625" x2="93.08072662353516" y2="43.666656494140625"></line><line stroke-dasharray="1" style="fill:none;stroke-width:[object Object];stroke:rgba(0, 0, 0, 0);" x1="41.4140625" y1="43.666656494140625" x2="41.4140625" y2="64.4999885559082"></line><line stroke-dasharray="1" style="fill:none;stroke-width:[object Object];stroke:rgba(0, 0, 0, 0);" x1="93.08072662353516" y1="43.666656494140625" x2="93.08072662353516" y2="64.4999885559082"></line><line stroke-dasharray="1" style="fill:none;stroke-width:[object Object];stroke:rgba(0, 0, 0, 0);" x1="41.4140625" y1="64.4999885559082" x2="93.08072662353516" y2="64.4999885559082"></line><line stroke-dasharray="1" style="fill:none;stroke-width:[object Object];stroke:rgba(0, 0, 0, 0);" x1="93.08074951171875" y1="43.666656494140625" x2="144.7474136352539" y2="43.666656494140625"></line><line stroke-dasharray="1" style="fill:none;stroke-width:[object Object];stroke:rgba(0, 0, 0, 0);" x1="93.08074951171875" y1="43.666656494140625" x2="93.08074951171875" y2="64.4999885559082"></line><line stroke-dasharray="1" style="fill:none;stroke-width:[object Object];stroke:rgba(0, 0, 0, 0);" x1="144.7474136352539" y1="43.666656494140625" x2="144.7474136352539" y2="64.4999885559082"></line><line stroke-dasharray="1" style="fill:none;stroke-width:[object Object];stroke:rgba(0, 0, 0, 0);" x1="93.08074951171875" y1="64.4999885559082" x2="144.7474136352539" y2="64.4999885559082"></line><line stroke-dasharray="1" style="fill:none;stroke-width:[object Object];stroke:rgba(0, 0, 0, 0);" x1="144.74740600585938" y1="43.666656494140625" x2="204.74740600585938" y2="43.666656494140625"></line><line stroke-dasharray="1" style="fill:none;stroke-width:[object Object];stroke:rgba(0, 0, 0, 0);" x1="144.74740600585938" y1="43.666656494140625" x2="144.74740600585938" y2="64.4999885559082"></line><line stroke-dasharray="1" style="fill:none;stroke-width:[object Object];stroke:rgba(0, 0, 0, 0);" x1="204.74740600585938" y1="43.666656494140625" x2="204.74740600585938" y2="64.4999885559082"></line><line stroke-dasharray="1" style="fill:none;stroke-width:[object Object];stroke:rgba(0, 0, 0, 0);" x1="144.74740600585938" y1="64.4999885559082" x2="204.74740600585938" y2="64.4999885559082"></line><line stroke-dasharray="1" style="fill:none;stroke-width:[object Object];stroke:rgba(0, 0, 0, 0);" x1="204.74737548828125" y1="43.666656494140625" x2="254.74737548828125" y2="43.666656494140625"></line><line stroke-dasharray="1" style="fill:none;stroke-width:[object Object];stroke:rgba(0, 0, 0, 0);" x1="204.74737548828125" y1="43.666656494140625" x2="204.74737548828125" y2="64.4999885559082"></line><line stroke-dasharray="1" style="fill:none;stroke-width:[object Object];stroke:rgba(0, 0, 0, 0);" x1="254.74737548828125" y1="43.666656494140625" x2="254.74737548828125" y2="64.4999885559082"></line><line stroke-dasharray="1" style="fill:none;stroke-width:[object Object];stroke:rgba(0, 0, 0, 0);" x1="204.74737548828125" y1="64.4999885559082" x2="254.74737548828125" y2="64.4999885559082"></line><line stroke-dasharray="1" style="fill:none;stroke-width:[object Object];stroke:rgba(0, 0, 0, 0);" x1="254.74737548828125" y1="43.666656494140625" x2="314.74737548828125" y2="43.666656494140625"></line><line stroke-dasharray="1" style="fill:none;stroke-width:[object Object];stroke:rgba(0, 0, 0, 0);" x1="254.74737548828125" y1="43.666656494140625" x2="254.74737548828125" y2="64.4999885559082"></line><line stroke-dasharray="1" style="fill:none;stroke-width:[object Object];stroke:rgba(0, 0, 0, 0);" x1="314.74737548828125" y1="43.666656494140625" x2="314.74737548828125" y2="64.4999885559082"></line><line stroke-dasharray="1" style="fill:none;stroke-width:[object Object];stroke:rgba(0, 0, 0, 0);" x1="254.74737548828125" y1="64.4999885559082" x2="314.74737548828125" y2="64.4999885559082"></line><line stroke-dasharray="1" style="fill:none;stroke-width:[object Object];stroke:rgba(0, 0, 0, 0);" x1="41.4140625" y1="64.5" x2="93.08072662353516" y2="64.5"></line><line stroke-dasharray="1" style="fill:none;stroke-width:[object Object];stroke:rgba(0, 0, 0, 0);" x1="41.4140625" y1="64.5" x2="41.4140625" y2="85.33333206176758"></line><line stroke-dasharray="1" style="fill:none;stroke-width:[object Object];stroke:rgba(0, 0, 0, 0);" x1="93.08072662353516" y1="64.5" x2="93.08072662353516" y2="85.33333206176758"></line><line stroke-dasharray="1" style="fill:none;stroke-width:[object Object];stroke:rgba(0, 0, 0, 0);" x1="41.4140625" y1="85.33333206176758" x2="93.08072662353516" y2="85.33333206176758"></line><line stroke-dasharray="1" style="fill:none;stroke-width:[object Object];stroke:rgba(0, 0, 0, 0);" x1="93.08074951171875" y1="64.5" x2="144.7474136352539" y2="64.5"></line><line stroke-dasharray="1" style="fill:none;stroke-width:[object Object];stroke:rgba(0, 0, 0, 0);" x1="93.08074951171875" y1="64.5" x2="93.08074951171875" y2="85.33333206176758"></line><line stroke-dasharray="1" style="fill:none;stroke-width:[object Object];stroke:rgba(0, 0, 0, 0);" x1="144.7474136352539" y1="64.5" x2="144.7474136352539" y2="85.33333206176758"></line><line stroke-dasharray="1" style="fill:none;stroke-width:[object Object];stroke:rgba(0, 0, 0, 0);" x1="93.08074951171875" y1="85.33333206176758" x2="144.7474136352539" y2="85.33333206176758"></line><line stroke-dasharray="1" style="fill:none;stroke-width:[object Object];stroke:rgba(0, 0, 0, 0);" x1="144.74740600585938" y1="64.5" x2="204.74740600585938" y2="64.5"></line><line stroke-dasharray="1" style="fill:none;stroke-width:[object Object];stroke:rgba(0, 0, 0, 0);" x1="144.74740600585938" y1="64.5" x2="144.74740600585938" y2="85.33333206176758"></line><line stroke-dasharray="1" style="fill:none;stroke-width:[object Object];stroke:rgba(0, 0, 0, 0);" x1="204.74740600585938" y1="64.5" x2="204.74740600585938" y2="85.33333206176758"></line><line stroke-dasharray="1" style="fill:none;stroke-width:[object Object];stroke:rgba(0, 0, 0, 0);" x1="144.74740600585938" y1="85.33333206176758" x2="204.74740600585938" y2="85.33333206176758"></line><line stroke-dasharray="1" style="fill:none;stroke-width:[object Object];stroke:rgba(0, 0, 0, 0);" x1="204.74737548828125" y1="64.5" x2="254.74737548828125" y2="64.5"></line><line stroke-dasharray="1" style="fill:none;stroke-width:[object Object];stroke:rgba(0, 0, 0, 0);" x1="204.74737548828125" y1="64.5" x2="204.74737548828125" y2="85.33333206176758"></line><line stroke-dasharray="1" style="fill:none;stroke-width:[object Object];stroke:rgba(0, 0, 0, 0);" x1="254.74737548828125" y1="64.5" x2="254.74737548828125" y2="85.33333206176758"></line><line stroke-dasharray="1" style="fill:none;stroke-width:[object Object];stroke:rgba(0, 0, 0, 0);" x1="204.74737548828125" y1="85.33333206176758" x2="254.74737548828125" y2="85.33333206176758"></line><line stroke-dasharray="1" style="fill:none;stroke-width:[object Object];stroke:rgba(0, 0, 0, 0);" x1="254.74737548828125" y1="64.5" x2="314.74737548828125" y2="64.5"></line><line stroke-dasharray="1" style="fill:none;stroke-width:[object Object];stroke:rgba(0, 0, 0, 0);" x1="254.74737548828125" y1="64.5" x2="254.74737548828125" y2="85.33333206176758"></line><line stroke-dasharray="1" style="fill:none;stroke-width:[object Object];stroke:rgba(0, 0, 0, 0);" x1="314.74737548828125" y1="64.5" x2="314.74737548828125" y2="85.33333206176758"></line><line stroke-dasharray="1" style="fill:none;stroke-width:[object Object];stroke:rgba(0, 0, 0, 0);" x1="254.74737548828125" y1="85.33333206176758" x2="314.74737548828125" y2="85.33333206176758"></line><line stroke-dasharray="1" style="fill:none;stroke-width:[object Object];stroke:rgba(0, 0, 0, 0);" x1="41.4140625" y1="85.33331298828125" x2="93.08072662353516" y2="85.33331298828125"></line><line stroke-dasharray="1" style="fill:none;stroke-width:[object Object];stroke:rgba(0, 0, 0, 0);" x1="41.4140625" y1="85.33331298828125" x2="41.4140625" y2="106.16664505004883"></line><line stroke-dasharray="1" style="fill:none;stroke-width:[object Object];stroke:rgba(0, 0, 0, 0);" x1="93.08072662353516" y1="85.33331298828125" x2="93.08072662353516" y2="106.16664505004883"></line><line stroke-dasharray="1" style="fill:none;stroke-width:[object Object];stroke:rgba(0, 0, 0, 0);" x1="41.4140625" y1="106.16664505004883" x2="93.08072662353516" y2="106.16664505004883"></line><line stroke-dasharray="1" style="fill:none;stroke-width:[object Object];stroke:rgba(0, 0, 0, 0);" x1="93.08074951171875" y1="85.33331298828125" x2="144.7474136352539" y2="85.33331298828125"></line><line stroke-dasharray="1" style="fill:none;stroke-width:[object Object];stroke:rgba(0, 0, 0, 0);" x1="93.08074951171875" y1="85.33331298828125" x2="93.08074951171875" y2="106.16664505004883"></line><line stroke-dasharray="1" style="fill:none;stroke-width:[object Object];stroke:rgba(0, 0, 0, 0);" x1="144.7474136352539" y1="85.33331298828125" x2="144.7474136352539" y2="106.16664505004883"></line><line stroke-dasharray="1" style="fill:none;stroke-width:[object Object];stroke:rgba(0, 0, 0, 0);" x1="93.08074951171875" y1="106.16664505004883" x2="144.7474136352539" y2="106.16664505004883"></line><line stroke-dasharray="1" style="fill:none;stroke-width:[object Object];stroke:rgba(0, 0, 0, 0);" x1="144.74740600585938" y1="85.33331298828125" x2="204.74740600585938" y2="85.33331298828125"></line><line stroke-dasharray="1" style="fill:none;stroke-width:[object Object];stroke:rgba(0, 0, 0, 0);" x1="144.74740600585938" y1="85.33331298828125" x2="144.74740600585938" y2="106.16664505004883"></line><line stroke-dasharray="1" style="fill:none;stroke-width:[object Object];stroke:rgba(0, 0, 0, 0);" x1="204.74740600585938" y1="85.33331298828125" x2="204.74740600585938" y2="106.16664505004883"></line><line stroke-dasharray="1" style="fill:none;stroke-width:[object Object];stroke:rgba(0, 0, 0, 0);" x1="144.74740600585938" y1="106.16664505004883" x2="204.74740600585938" y2="106.16664505004883"></line><line stroke-dasharray="1" style="fill:none;stroke-width:[object Object];stroke:rgba(0, 0, 0, 0);" x1="204.74737548828125" y1="85.33331298828125" x2="254.74737548828125" y2="85.33331298828125"></line><line stroke-dasharray="1" style="fill:none;stroke-width:[object Object];stroke:rgba(0, 0, 0, 0);" x1="204.74737548828125" y1="85.33331298828125" x2="204.74737548828125" y2="106.16664505004883"></line><line stroke-dasharray="1" style="fill:none;stroke-width:[object Object];stroke:rgba(0, 0, 0, 0);" x1="254.74737548828125" y1="85.33331298828125" x2="254.74737548828125" y2="106.16664505004883"></line><line stroke-dasharray="1" style="fill:none;stroke-width:[object Object];stroke:rgba(0, 0, 0, 0);" x1="204.74737548828125" y1="106.16664505004883" x2="254.74737548828125" y2="106.16664505004883"></line><line stroke-dasharray="1" style="fill:none;stroke-width:[object Object];stroke:rgba(0, 0, 0, 0);" x1="254.74737548828125" y1="85.33331298828125" x2="314.74737548828125" y2="85.33331298828125"></line><line stroke-dasharray="1" style="fill:none;stroke-width:[object Object];stroke:rgba(0, 0, 0, 0);" x1="254.74737548828125" y1="85.33331298828125" x2="254.74737548828125" y2="106.16664505004883"></line><line stroke-dasharray="1" style="fill:none;stroke-width:[object Object];stroke:rgba(0, 0, 0, 0);" x1="314.74737548828125" y1="85.33331298828125" x2="314.74737548828125" y2="106.16664505004883"></line><line stroke-dasharray="1" style="fill:none;stroke-width:[object Object];stroke:rgba(0, 0, 0, 0);" x1="254.74737548828125" y1="106.16664505004883" x2="314.74737548828125" y2="106.16664505004883"></line></g></g></g></svg>